<svg width="300" height="300" viewBox="0 0 300 300" fill="none" xmlns="http://www.w3.org/2000/svg">
<path fill-rule="evenodd" clip-rule="evenodd" d="M150 300C232.843 300 300 232.843 300 150C300 67.1573 232.843 0 150 0C149.945 0 149.891 2.92558e-05 149.836 8.77526e-05C149.793 2.92578e-05 149.75 0 149.707 0C149.348 0 148.989 0.00204425 148.631 0.00612173C66.4184 0.741377 0 67.6143 0 150C0 232.843 67.1573 300 150 300ZM148.631 0.00612173C97.9258 0.583054 57 41.8657 57 92.707C57 143.908 98.5064 185.414 149.707 185.414C200.908 185.414 242.414 143.908 242.414 92.707C242.414 41.5493 200.977 0.0697017 149.836 8.77526e-05C149.434 0.000518143 149.032 0.00253143 148.631 0.00612173Z" fill="#333"/>
<rect x="115" y="114.592" width="70.822" height="16.7182" rx="8.35909" fill="#333"/>
</svg>
