<svg width="1694" height="300" viewBox="0 0 1694 300" fill="none" xmlns="http://www.w3.org/2000/svg">
<path fill-rule="evenodd" clip-rule="evenodd" d="M150 300C232.843 300 300 232.843 300 150C300 67.1573 232.843 0 150 0C149.945 0 149.891 2.92558e-05 149.836 8.77526e-05C149.793 2.92578e-05 149.75 0 149.707 0C149.348 0 148.989 0.00204425 148.631 0.00612173C66.4184 0.741377 0 67.6143 0 150C0 232.843 67.1573 300 150 300ZM148.631 0.00612173C97.9258 0.583054 57 41.8657 57 92.707C57 143.908 98.5064 185.414 149.707 185.414C200.908 185.414 242.414 143.908 242.414 92.707C242.414 41.5493 200.977 0.0697017 149.836 8.77526e-05C149.434 0.000518143 149.032 0.00253143 148.631 0.00612173Z" fill="#4C4C4C"/>
<rect x="115" y="114.592" width="70.822" height="16.7182" rx="8.35909" fill="#4C4C4C"/>
<path d="M420 45.8H431.1V174.8C431.1 188 434.4 200.2 441 211.4C447.6 222.6 456.5 231.5 467.7 238.1C478.9 244.7 491.1 248 504.3 248C517.5 248 529.7 244.7 540.9 238.1C552.1 231.5 561 222.6 567.6 211.4C574.2 200.2 577.5 188 577.5 174.8V45.8H588.6V174.8C588.6 190 584.8 204.1 577.2 217.1C569.6 229.9 559.3 240.1 546.3 247.7C533.5 255.3 519.5 259.1 504.3 259.1C489.1 259.1 475 255.3 462 247.7C449.2 240.1 439 229.9 431.4 217.1C423.8 204.1 420 190 420 174.8V45.8Z" fill="#4C4C4C"/>
<path d="M674.77 156.5V145.4H777.97V156.5H674.77Z" fill="#4C4C4C"/>
<path d="M946.341 45.8C961.541 45.8 975.541 49.6 988.341 57.2C1001.34 64.8 1011.64 75.1 1019.24 88.1C1026.84 100.9 1030.64 114.9 1030.64 130.1V170.3C1030.64 185.5 1026.84 199.6 1019.24 212.6C1011.64 225.4 1001.34 235.6 988.341 243.2C975.541 250.8 961.541 254.6 946.341 254.6H869.241V45.8H946.341ZM1019.54 130.1C1019.54 116.9 1016.24 104.7 1009.64 93.5C1003.04 82.3 994.041 73.4 982.641 66.8C971.441 60.2 959.241 56.9 946.041 56.9H880.341V243.5H946.041C959.241 243.5 971.441 240.2 982.641 233.6C994.041 227 1003.04 218.1 1009.64 206.9C1016.24 195.7 1019.54 183.5 1019.54 170.3V130.1Z" fill="#4C4C4C"/>
<path d="M1164.81 45.8H1176.51L1262.31 254.6H1250.31L1222.11 185.6H1119.21L1090.71 254.6H1079.01L1164.81 45.8ZM1123.71 174.8H1217.61L1170.51 60.2L1123.71 174.8Z" fill="#4C4C4C"/>
<path d="M1318.78 45.8L1392.88 157.4L1466.38 45.8H1479.58L1398.28 169.1V254.6H1387.18V169.1L1305.58 45.8H1318.78Z" fill="#4C4C4C"/>
<path d="M1619.15 154.7C1602.15 151.3 1588.25 147.6 1577.45 143.6C1566.85 139.4 1558.45 133.8 1552.25 126.8C1546.25 119.6 1543.25 110.4 1543.25 99.2C1543.25 87.6 1546.25 77.4 1552.25 68.6C1558.45 59.8 1567.05 53 1578.05 48.2C1589.25 43.4 1602.15 41 1616.75 41C1630.75 41 1643.55 44 1655.15 50C1666.95 55.8 1676.25 64 1683.05 74.6C1689.85 85.2 1693.25 97.3 1693.25 110.9H1682.15C1682.15 99.1 1679.25 88.7 1673.45 79.7C1667.65 70.7 1659.75 63.8 1649.75 59C1639.75 54 1628.65 51.5 1616.45 51.5C1605.65 51.5 1595.55 53.2 1586.15 56.6C1576.75 60 1569.05 65.2 1563.05 72.2C1557.25 79.2 1554.35 88 1554.35 98.6C1554.35 108.2 1557.15 115.9 1562.75 121.7C1568.35 127.3 1575.65 131.6 1584.65 134.6C1593.65 137.6 1606.25 140.8 1622.45 144.2C1638.85 147.6 1651.55 150.9 1660.55 154.1C1669.75 157.1 1677.45 162.2 1683.65 169.4C1690.05 176.6 1693.25 186.7 1693.25 199.7C1693.25 212.7 1689.75 223.7 1682.75 232.7C1675.95 241.5 1666.85 248.1 1655.45 252.5C1644.05 256.9 1631.65 259.1 1618.25 259.1C1601.65 259.1 1587.05 256 1574.45 249.8C1561.85 243.6 1552.15 234.9 1545.35 223.7C1538.75 212.3 1535.45 199.3 1535.45 184.7H1546.55C1546.55 197.5 1549.35 208.7 1554.95 218.3C1560.75 227.9 1569.05 235.4 1579.85 240.8C1590.65 246 1603.45 248.6 1618.25 248.6C1636.65 248.6 1651.85 244.2 1663.85 235.4C1676.05 226.6 1682.15 214.6 1682.15 199.4C1682.15 189 1679.55 181 1674.35 175.4C1669.15 169.8 1662.55 165.8 1654.55 163.4C1646.75 160.8 1634.95 157.9 1619.15 154.7Z" fill="#4C4C4C"/>
</svg>
